<svg xmlns="http://www.w3.org/2000/svg" width="1200" height="720" viewBox="0 0 1200 720">
  <defs>
    <linearGradient id="bg" x1="0" y1="0" x2="1" y2="1">
      <stop offset="0%" stop-color="#1d3557"/>
      <stop offset="100%" stop-color="#2a4d76"/>
    </linearGradient>
  </defs>

  <rect width="1200" height="720" fill="url(#bg)"/>
  <rect x="80" y="80" width="1040" height="560" rx="24" fill="#ffffff" opacity="0.08"/>

  <text x="120" y="160" fill="#eef6ff" font-size="44" font-family="Arial, sans-serif" font-weight="700">
    STEP Diving into Data 2024
  </text>
  <text x="120" y="200" fill="#c8def0" font-size="24" font-family="Arial, sans-serif">
    ADHD environmental risk factors: EDA and regression
  </text>

  <rect x="140" y="245" width="450" height="330" rx="20" fill="#0f1d38" opacity="0.55"/>
  <text x="175" y="292" fill="#dcecff" font-size="30" font-family="Arial, sans-serif" font-weight="700">EDA</text>

  <circle cx="250" cy="370" r="18" fill="#8ecae6"/>
  <circle cx="320" cy="430" r="16" fill="#8ecae6"/>
  <circle cx="380" cy="360" r="17" fill="#8ecae6"/>
  <circle cx="450" cy="410" r="15" fill="#8ecae6"/>
  <circle cx="510" cy="345" r="16" fill="#8ecae6"/>

  <line x1="180" y1="530" x2="540" y2="530" stroke="#9ec4df" stroke-width="3"/>
  <line x1="180" y1="530" x2="180" y2="320" stroke="#9ec4df" stroke-width="3"/>

  <rect x="620" y="245" width="440" height="330" rx="20" fill="#0f1d38" opacity="0.55"/>
  <text x="655" y="292" fill="#dcecff" font-size="30" font-family="Arial, sans-serif" font-weight="700">Regression</text>

  <line x1="660" y1="530" x2="1020" y2="530" stroke="#9ec4df" stroke-width="3"/>
  <line x1="660" y1="530" x2="660" y2="320" stroke="#9ec4df" stroke-width="3"/>
  <polyline points="678,500 740,470 802,476 864,430 926,438 988,388"
            fill="none" stroke="#71e9da" stroke-width="8"/>

  <text x="655" y="565" fill="#d1e3f2" font-size="24" font-family="Arial, sans-serif">R²: 0.007 -> 0.20</text>
</svg>
